<?xml version="1.0" encoding="UTF-8" standalone="no"?>
<svg
   xmlns:dc="http://purl.org/dc/elements/1.1/"
   xmlns:cc="http://creativecommons.org/ns#"
   xmlns:rdf="http://www.w3.org/1999/02/22-rdf-syntax-ns#"
   xmlns:svg="http://www.w3.org/2000/svg"
   xmlns="http://www.w3.org/2000/svg"
   width="203.47534mm"
   height="40.152367mm"
   viewBox="0 0 720.97562 142.27217"
   id="svg2"
   version="1.1">
  <defs
     id="defs4" />
  <metadata
     id="metadata7">
    <rdf:RDF>
      <cc:Work
         rdf:about="">
        <dc:format>image/svg+xml</dc:format>
        <dc:type
           rdf:resource="http://purl.org/dc/dcmitype/StillImage" />
        <dc:title></dc:title>
      </cc:Work>
    </rdf:RDF>
  </metadata>
  <g
     transform="translate(-12.207709,-440.70023)"
     id="g3440">
    <path
       style="fill:#dfdfdf"
       d="m 354.73846,582.3741 c -27.83086,-4.33429 -45.41859,-19.9168 -52.65577,-46.65243 -1.80142,-6.65483 -2.06848,-9.75798 -2.08619,-24.24202 -0.0179,-14.60026 0.23069,-17.53055 2.05391,-24.2153 7.88086,-28.89464 28.99458,-44.6662 62.11042,-46.39535 31.78213,-1.6595 54.85674,8.96053 65.25328,30.03266 1.36279,2.76214 2.0128,5.08421 1.5471,5.52676 -0.44172,0.41977 -5.81231,2.25111 -11.93462,4.06966 -6.12234,1.81853 -11.62577,3.49609 -12.22987,3.7279 -0.60503,0.23218 -2.12998,-1.33884 -3.39517,-3.49772 -3.12495,-5.33233 -9.64031,-11.15145 -15.47805,-13.82406 -9.20431,-4.21386 -24.96993,-4.31883 -35.88854,-0.23894 -3.98479,1.48898 -6.78351,3.42455 -10.80826,7.47494 -9.32556,9.38495 -12.44383,18.75663 -12.42412,37.33945 0.0143,13.45089 1.32194,19.99064 5.75219,28.76692 7.52295,14.90289 24.05683,22.3591 43.76487,19.73645 9.64294,-1.28323 20.09651,-4.57296 25.57625,-8.04881 l 4.26481,-2.7052 0,-9.89616 0,-9.89615 -16.61028,0 -16.61027,0 0,-10.77423 0,-10.77422 30.07806,0 30.07806,0 0,25.53898 0,25.53898 -4.48122,3.86569 c -9.54331,8.23243 -22.69159,14.47853 -37.6606,17.8907 -8.92039,2.0334 -29.93307,2.94145 -38.21599,1.6515 z m -342.530751,-70.44552 0,-69.58357 19.11634,0 19.116342,0 13.176911,41.52568 c 7.247295,22.83912 14.250105,45.86904 15.561795,51.1776 1.311692,5.30855 2.649564,9.65191 2.97306,9.65191 0.323496,0 1.340432,-2.92924 2.25985,-6.50943 0.919428,-3.58019 7.87749,-26.46215 15.462353,-50.84879 7.58488,-24.38664 13.79069,-44.4873 13.79069,-44.66816 0,-0.18085 8.68672,-0.32881 19.30383,-0.32881 l 19.30383,0 0,69.58357 0,69.58358 -13.14935,0 -13.14935,0 0.45969,-55.81937 0.45969,-55.81936 -4.30709,15.64046 c -2.36891,8.60226 -10.10943,33.61996 -17.20115,55.59489 l -12.894031,39.95445 -10.345426,0.25151 -10.345426,0.25151 -13.62414,-42.45058 C 50.682846,515.76785 42.924511,490.8066 40.935382,483.64623 c -1.98913,-7.16038 -3.71113,-13.32316 -3.826666,-13.69508 -0.115536,-0.37191 -0.07713,24.57717 0.08529,55.4424 l 0.295322,56.11861 -12.640795,0 -12.640795,0 0,-69.58358 z m 439.049911,0.39575 0,-69.18783 37.93427,0.32382 c 41.70682,0.35603 42.89196,0.49164 54.31394,6.2148 6.21704,3.11514 13.3412,10.03409 16.29662,15.8272 4.42745,8.67852 5.85111,23.67837 3.20981,33.81902 -3.97842,15.2742 -14.91018,26.4072 -30.94791,31.51766 -4.02049,1.28114 -9.31815,1.64697 -28.50682,1.9686 l -23.56864,0.39503 0,24.15476 0,24.15477 -14.36563,0 -14.36564,0 0,-69.18783 z m 71.8282,-3.86865 c 8.52521,-4.53131 12.03987,-10.59419 12.03987,-20.76912 0,-10.5245 -3.29353,-15.99846 -12.03987,-20.01065 -2.49895,-1.14634 -7.23346,-1.51265 -23.1197,-1.78881 l -19.97723,-0.34728 0,22.59566 0,22.59567 19.97723,-0.3026 c 17.38029,-0.26324 20.38572,-0.51971 23.1197,-1.97287 z m 52.07545,3.4729 0,-69.58357 14.36565,0 14.36564,0 0,69.58357 0,69.58358 -14.36564,0 -14.36565,0 0,-69.58358 z m 45.79048,0 0,-69.58357 54.32008,0 54.32008,0 0,11.22315 0,11.22316 -39.95444,0 -39.95444,0 0,17.50813 0,17.50812 36.81196,0 36.81195,0 0,11.22316 0,11.22316 -36.81195,0 -36.81196,0 0,18.40597 0,18.40598 41.75015,0 41.75014,0 0,11.22316 0,11.22316 -56.11578,0 -56.11579,0 0,-69.58358 z m -459.30602,67.13705 c 0.29142,-0.8766 11.56233,-31.89634 25.04647,-68.93276 l 24.51662,-67.33894 17.1258,-0.24351 17.12581,-0.24353 0.8928,2.48816 c 0.49105,1.36848 11.64448,32.13086 24.78543,68.36083 13.14093,36.22999 23.89261,66.23974 23.89261,66.68836 0,0.46483 -6.05846,0.70931 -14.0854,0.5684 l -14.08539,-0.24726 -5.925,-17.0592 -5.92501,-17.05921 -26.46527,-0.23749 -26.46525,-0.2375 -5.93872,17.2967 -5.93871,17.2967 -14.54331,0.24703 c -13.58963,0.23082 -14.50856,0.1425 -14.01348,-1.34678 z m 86.69292,-55.2405 c -0.003,-0.12346 -4.17959,-12.54749 -9.28275,-27.60897 -5.10314,-15.06147 -9.54299,-28.39458 -9.86632,-29.62913 -0.44811,-1.71089 -2.93774,4.76284 -10.47003,27.22482 -5.43518,16.2082 -9.88212,29.64232 -9.88212,29.85359 0,0.21129 8.88873,0.38415 19.75275,0.38415 10.86401,0 19.75082,-0.10099 19.74847,-0.22446 z"
       id="path3438" />
  </g>
</svg>
