<?xml version="1.0" encoding="UTF-8" standalone="no"?>
<svg
   xmlns:dc="http://purl.org/dc/elements/1.1/"
   xmlns:cc="http://creativecommons.org/ns#"
   xmlns:rdf="http://www.w3.org/1999/02/22-rdf-syntax-ns#"
   xmlns:svg="http://www.w3.org/2000/svg"
   xmlns="http://www.w3.org/2000/svg"
   width="204.34755mm"
   height="44.731709mm"
   viewBox="0 0 724.06612 158.49818"
   id="svg2"
   version="1.1">
  <defs
     id="defs4" />
  <metadata
     id="metadata7">
    <rdf:RDF>
      <cc:Work
         rdf:about="">
        <dc:format>image/svg+xml</dc:format>
        <dc:type
           rdf:resource="http://purl.org/dc/dcmitype/StillImage" />
        <dc:title></dc:title>
      </cc:Work>
    </rdf:RDF>
  </metadata>
  <g
     transform="translate(-7.3009462,-273.02397)"
     id="g3440">
    <path
       style="fill:#dfdfdf"
       d="m 57.427666,430.8102 c -8.75748,-1.22938 -19.39161,-4.54573 -26.27127,-8.19295 -10.48164,-5.55679 -21.00168,-19.28628 -23.2396298,-30.32955 l -0.61582,-3.03881 13.7830698,-2.22324 c 7.58069,-1.22278 14.52171,-2.21782 15.42449,-2.2112 0.98393,0.007 2.30143,1.66157 3.28912,4.13007 4.18999,10.4718 12.8055,16.07001 27.81946,18.0766 14.13629,1.8893 30.71484,-1.23287 37.065844,-6.98045 4.85326,-4.39214 6.45235,-14.89418 3.21971,-21.14542 -3.71582,-7.1856 -11.674164,-10.65652 -38.035554,-16.58865 -33.9612,-7.64232 -44.87849,-13.62025 -51.8876,-28.41188 -2.89819,-6.11617 -3.11201,-7.32529 -3.10676,-17.56822 0.005,-9.99088 0.2688,-11.57083 2.87417,-17.22237 5.35465,-11.61527 17.65551,-20.43715 33.20775,-23.81581 16.58286,-3.60256 42.83455,-2.81351 56.751764,1.70581 15.2401,4.94889 25.17236,15.88822 29.0068,31.94791 l 0.62449,2.61553 -12.73531,1.67165 c -7.00441,0.9194 -14.13393,1.918 -15.84337,2.21912 -2.78945,0.49136 -3.16629,0.2569 -3.67605,-2.28718 -1.02467,-5.11391 -6.175594,-10.92252 -12.393074,-13.97549 -5.46306,-2.68252 -6.5951,-2.85917 -18.32281,-2.85917 -11.47122,0 -12.97108,0.22079 -18.22374,2.68266 -15.17729,7.11342 -13.78738,24.63049 2.52607,31.83606 2.64128,1.16664 13.51334,4.09629 24.16014,6.51032 30.719464,6.96529 39.996984,10.81661 48.519564,20.14168 8.17229,8.94178 11.48998,22.05532 9.0805,35.89162 -3.18574,18.29384 -15.20486,29.64626 -37.56253,35.47892 -9.177454,2.39421 -34.507744,3.47702 -45.439424,1.94244 z m 96.939424,-78.50909 0,-77.5254 15.75,0.2754 15.75,0.27539 0.25617,77.25 0.25617,77.25 -16.00617,0 -16.00617,0 0,-77.52539 z m 51,0.52539 0,-77 16,0 16,0 0,64.5 0,64.5 41,0 41,0 0,12.5 0,12.5 -57,0 -57,0 0,-77 z m 151.96547,76.75 c -0.019,-0.1375 -12.74674,-34.675 -28.28388,-76.75 l -28.24934,-76.5 16.42572,-0.27482 c 9.03414,-0.15115 16.61346,-0.0871 16.84292,0.14238 0.78107,0.78107 31.35843,97.07029 35.44971,111.63244 2.2406,7.975 4.17897,14.61814 4.30748,14.76253 0.12851,0.1444 1.47786,-4.51983 2.99856,-10.36494 1.52069,-5.84512 10.29496,-34.31326 19.49836,-63.26254 l 16.73347,-52.63505 16.77223,-0.27471 c 13.5985,-0.22272 16.676,-0.0239 16.26366,1.05063 -0.27972,0.72893 -12.99977,35.39005 -28.26679,77.02471 l -27.75822,75.69937 -16.34967,0 c -8.99233,0 -16.36522,-0.1125 -16.38421,-0.25 z m 95.03453,-77.25 0,-77.5 60.5,0 60.5,0 0,12.5 0,12.5 -44.5,0 -44.5,0 0,19.5 0,19.5 41,0 41,0 0,12.5 0,12.5 -41,0 -41,0 0,20.5 0,20.5 46.5,0 46.5,0 0,12.5 0,12.5 -62.5,0 -62.5,0 0,-77.5 z m 138,-0.5 0,-77 42.36901,0 c 47.81292,0 54.69147,0.65724 67.15732,6.41682 9.75935,4.50909 15.64448,10.12649 20.14112,19.22482 3.24748,6.57083 3.6875,8.40964 4.1095,17.17341 0.96175,19.97253 -6.95393,34.63263 -23.04689,42.68361 -3.84933,1.92574 -7.61331,3.50134 -8.36442,3.50134 -0.7511,0 -1.36564,0.44619 -1.36564,0.99153 0,0.54535 9,14.96031 20,32.03325 11,17.07294 20,31.25175 20,31.50846 0,0.25672 -8.02581,0.46676 -17.83513,0.46676 l -17.83514,0 -17.57441,-28.75 -17.57442,-28.75 -19.09045,-0.27159 -19.09045,-0.2716 0,29.0216 0,29.02159 -16,0 -16,0 0,-77 z m 85.0685,-7.59628 c 11.23554,-3.30204 16.35452,-10.13977 16.39793,-21.90372 0.0303,-8.21268 -2.4427,-13.57465 -8.02497,-17.39968 -6.04651,-4.14313 -12.99149,-5.06777 -38.19146,-5.0847 l -23.25,-0.0156 0,23 0,23 23.8185,0 c 18.87541,0 24.94571,-0.33128 29.25,-1.59628 z"
       id="path3425" />
  </g>
</svg>
