<?xml version="1.0" encoding="UTF-8" standalone="no"?>
<!-- Created with Inkscape (http://www.inkscape.org/) -->

<svg
   xmlns:dc="http://purl.org/dc/elements/1.1/"
   xmlns:cc="http://creativecommons.org/ns#"
   xmlns:rdf="http://www.w3.org/1999/02/22-rdf-syntax-ns#"
   xmlns:svg="http://www.w3.org/2000/svg"
   xmlns="http://www.w3.org/2000/svg"
   xmlns:sodipodi="http://sodipodi.sourceforge.net/DTD/sodipodi-0.dtd"
   xmlns:inkscape="http://www.inkscape.org/namespaces/inkscape"
   width="42.960758mm"
   height="25.274006mm"
   viewBox="0 0 152.22316 89.553564"
   id="svg2"
   version="1.1"
   inkscape:version="0.91 r13725"
   sodipodi:docname="video-placeholder.svg">
  <defs
     id="defs4" />
  <sodipodi:namedview
     id="base"
     pagecolor="#ffffff"
     bordercolor="#666666"
     borderopacity="1.0"
     inkscape:pageopacity="0.0"
     inkscape:pageshadow="2"
     inkscape:zoom="2.8"
     inkscape:cx="-5.3776074"
     inkscape:cy="53.450569"
     inkscape:document-units="px"
     inkscape:current-layer="layer1"
     showgrid="false"
     fit-margin-top="0"
     fit-margin-left="0"
     fit-margin-right="0"
     fit-margin-bottom="0"
     inkscape:window-width="1366"
     inkscape:window-height="719"
     inkscape:window-x="0"
     inkscape:window-y="25"
     inkscape:window-maximized="1" />
  <metadata
     id="metadata7">
    <rdf:RDF>
      <cc:Work
         rdf:about="">
        <dc:format>image/svg+xml</dc:format>
        <dc:type
           rdf:resource="http://purl.org/dc/dcmitype/StillImage" />
        <dc:title></dc:title>
      </cc:Work>
    </rdf:RDF>
  </metadata>
  <g
     inkscape:label="Layer 1"
     inkscape:groupmode="layer"
     id="layer1"
     transform="translate(-153.26598,-51.504058)">
    <path
       inkscape:connector-curvature="0"
       id="path3363"
       d="m 153.26598,96.280842 0,-44.776784 76.11158,0 76.11158,0 0,44.776784 0,44.776778 -76.11158,0 -76.11158,0 0,-44.776778 z"
       style="fill:#d9d9d9" />
    <path
       inkscape:connector-curvature="0"
       id="path3355"
       d="m 210.40515,96.286597 0,-14.578866 18.91313,0 18.91313,0 0,14.578866 0,14.578873 -18.91313,0 -18.91313,0 0,-14.578873 z m 6.30438,10.638643 c 0,-1.05074 -0.52537,-1.5761 -1.57609,-1.5761 -1.05073,0 -1.5761,0.52536 -1.5761,1.5761 0,1.05072 0.52537,1.57609 1.5761,1.57609 1.05072,0 1.57609,-0.52537 1.57609,-1.57609 z m 28.36969,0 c 0,-1.05074 -0.52537,-1.5761 -1.5761,-1.5761 -1.05072,0 -1.57609,0.52536 -1.57609,1.5761 0,1.05072 0.52537,1.57609 1.57609,1.57609 1.05073,0 1.5761,-0.52537 1.5761,-1.57609 z m -13.701,-6.77998 c 3.2013,-1.995271 5.82054,-3.731677 5.82054,-3.858663 0,-0.345929 -11.56465,-7.486443 -12.12492,-7.486443 -0.26612,0 -0.48385,3.368898 -0.48385,7.486443 0,4.117553 0.21773,7.486453 0.48385,7.486453 0.26612,0 3.10309,-1.6325 6.30438,-3.62779 z m -14.66869,-0.312449 c 0,-1.050737 -0.52537,-1.576096 -1.57609,-1.576096 -1.05073,0 -1.5761,0.525359 -1.5761,1.576096 0,1.050729 0.52537,1.576099 1.5761,1.576099 1.05072,0 1.57609,-0.52537 1.57609,-1.576099 z m 28.36969,0 c 0,-1.050737 -0.52537,-1.576096 -1.5761,-1.576096 -1.05072,0 -1.57609,0.525359 -1.57609,1.576096 0,1.050729 0.52537,1.576099 1.57609,1.576099 1.05073,0 1.5761,-0.52537 1.5761,-1.576099 z m -28.36969,-7.092425 c 0,-1.050727 -0.52537,-1.576095 -1.57609,-1.576095 -1.05073,0 -1.5761,0.525368 -1.5761,1.576095 0,1.050726 0.52537,1.576094 1.5761,1.576094 1.05072,0 1.57609,-0.525368 1.57609,-1.576094 z m 28.36969,0 c 0,-1.050727 -0.52537,-1.576095 -1.5761,-1.576095 -1.05072,0 -1.57609,0.525368 -1.57609,1.576095 0,1.050726 0.52537,1.576094 1.57609,1.576094 1.05073,0 1.5761,-0.525368 1.5761,-1.576094 z m -28.36969,-7.09242 c 0,-1.050727 -0.52537,-1.576093 -1.57609,-1.576093 -1.05073,0 -1.5761,0.525366 -1.5761,1.576093 0,1.050727 0.52537,1.576094 1.5761,1.576094 1.05072,0 1.57609,-0.525367 1.57609,-1.576094 z m 28.36969,0 c 0,-1.050727 -0.52537,-1.576093 -1.5761,-1.576093 -1.05072,0 -1.57609,0.525366 -1.57609,1.576093 0,1.050727 0.52537,1.576094 1.57609,1.576094 1.05073,0 1.5761,-0.525367 1.5761,-1.576094 z"
       style="fill:#84888b" />
  </g>
</svg>
